<svg id="Capa_1" enable-background="new 0 0 512 512" height="512" viewBox="0 0 512 512" width="512" xmlns="http://www.w3.org/2000/svg"><g><g><path d="m234.743 47.421h230.215c4.137 0 7.49-3.353 7.49-7.49s-3.353-7.491-7.49-7.491h-230.215c-4.137 0-7.491 3.353-7.491 7.491 0 4.137 3.354 7.49 7.491 7.49z"/><path d="m464.958 69.585h-230.215c-4.137 0-7.491 3.353-7.491 7.491 0 4.137 3.354 7.49 7.491 7.49h230.215c4.137 0 7.49-3.353 7.49-7.49s-3.353-7.491-7.49-7.491z"/><path d="m234.743 121.712h156.217c4.137 0 7.491-3.353 7.491-7.49s-3.353-7.491-7.491-7.491h-156.217c-4.137 0-7.491 3.353-7.491 7.491 0 4.137 3.354 7.49 7.491 7.49z"/><path d="m464.958 211.364h-230.215c-4.137 0-7.491 3.353-7.491 7.49s3.354 7.49 7.491 7.49h230.215c4.137 0 7.49-3.353 7.49-7.49s-3.353-7.49-7.49-7.49z"/><path d="m464.958 248.509h-230.215c-4.137 0-7.491 3.353-7.491 7.491s3.354 7.491 7.491 7.491h230.215c4.137 0 7.49-3.353 7.49-7.491s-3.353-7.491-7.49-7.491z"/><path d="m234.743 300.636h156.217c4.137 0 7.491-3.353 7.491-7.49s-3.353-7.49-7.491-7.49h-156.217c-4.137 0-7.491 3.353-7.491 7.49s3.354 7.49 7.491 7.49z"/><path d="m198.758 368.965c-4.222-3.713-9.636-5.555-15.249-5.201-5.612.36-10.747 2.883-14.461 7.105l-3.803 4.324c-13.273-10.828-30.191-17.345-48.616-17.345-42.5 0-77.077 34.576-77.077 77.076s34.576 77.076 77.077 77.076 77.077-34.576 77.077-77.076c0-8.368-1.37-16.414-3.852-23.961l10.808-12.287c3.714-4.222 5.561-9.637 5.202-15.249-.361-5.612-2.884-10.748-7.106-14.462zm-82.129 128.054c-34.24 0-62.095-27.856-62.095-62.095s27.856-62.095 62.095-62.095c14.638 0 28.097 5.105 38.723 13.611l-31.727 36.069-11.384-13.281c-3.659-4.269-8.762-6.857-14.368-7.29-5.599-.435-11.045 1.345-15.315 5.005-8.813 7.555-9.837 20.87-2.283 29.684l27.161 31.687c3.968 4.631 9.74 7.31 15.838 7.352.056.001.11.001.146.001 6.05 0 11.81-2.605 15.806-7.148l38.63-43.916c.568 3.358.87 6.804.87 10.321-.002 34.239-27.858 62.095-62.097 62.095zm72.783-108.238-61.436 69.844c-1.146 1.302-2.795 2.052-4.528 2.061-.023 0-.047-.001-.07-.001-1.758-.011-3.423-.783-4.568-2.119l-27.162-31.688c-2.178-2.541-1.882-6.381.659-8.56 1.11-.951 2.493-1.461 3.939-1.461.158 0 .316.006.475.019 1.617.124 3.088.871 4.144 2.102l16.998 19.831c1.412 1.647 3.469 2.602 5.639 2.616 2.196.031 4.239-.913 5.672-2.544l51.121-58.118c1.071-1.217 2.552-1.945 4.17-2.048 1.615-.108 3.18.429 4.397 1.499 1.218 1.072 1.945 2.552 2.049 4.17.105 1.618-.428 3.179-1.499 4.397z"/><path d="m464.958 390.288h-230.215c-4.137 0-7.491 3.353-7.491 7.49s3.354 7.49 7.491 7.49h230.215c4.137 0 7.49-3.353 7.49-7.49s-3.353-7.49-7.49-7.49z"/><path d="m464.958 427.433h-230.215c-4.137 0-7.491 3.353-7.491 7.49s3.354 7.491 7.491 7.491h230.215c4.137 0 7.49-3.353 7.49-7.491 0-4.136-3.353-7.49-7.49-7.49z"/><path d="m390.96 464.579h-156.217c-4.137 0-7.491 3.353-7.491 7.49s3.354 7.491 7.491 7.491h156.217c4.137 0 7.491-3.353 7.491-7.491s-3.354-7.49-7.491-7.49z"/><path d="m198.758 11.117c-4.222-3.713-9.636-5.557-15.249-5.202-5.612.36-10.747 2.883-14.461 7.105l-3.793 4.313c-13.273-10.827-30.201-17.333-48.626-17.333-19.085 0-37.4 7.028-51.57 19.791-3.074 2.769-3.321 7.505-.552 10.58 2.768 3.074 7.505 3.321 10.579.553 11.413-10.28 26.167-15.942 41.543-15.942 14.638 0 28.097 5.105 38.722 13.612l-31.726 36.068-11.385-13.282c-3.659-4.269-8.762-6.858-14.368-7.29-5.599-.435-11.045 1.346-15.315 5.005-8.813 7.555-9.837 20.87-2.283 29.683l27.161 31.687c3.968 4.631 9.74 7.31 15.838 7.352.056.001.11.001.146.001 6.05 0 11.81-2.605 15.806-7.148l38.629-43.916c.567 3.358.87 6.804.87 10.321 0 34.239-27.856 62.095-62.095 62.095s-62.095-27.856-62.095-62.095c0-7.344 1.267-14.529 3.767-21.354 1.423-3.885-.573-8.187-4.458-9.61-3.883-1.422-8.187.573-9.61 4.458-3.106 8.481-4.681 17.399-4.681 26.506 0 42.5 34.576 77.076 77.077 77.076s77.077-34.576 77.077-77.076c0-8.372-1.353-16.431-3.833-23.983l10.789-12.265c3.714-4.222 5.561-9.637 5.202-15.249-.361-5.611-2.884-10.747-7.106-14.461zm-9.346 19.816-61.436 69.844c-1.146 1.302-2.795 2.052-4.528 2.061-.023 0-.047-.001-.07-.001-1.758-.011-3.423-.783-4.568-2.119l-27.162-31.688c-2.178-2.541-1.882-6.381.659-8.56 1.11-.951 2.493-1.461 3.939-1.461.158 0 .316.006.475.019 1.617.124 3.088.871 4.144 2.102l16.998 19.831c1.412 1.647 3.469 2.602 5.639 2.616 2.196-.016 4.239-.914 5.672-2.544l51.121-58.118c1.071-1.217 2.552-1.945 4.17-2.048 1.615-.104 3.18.429 4.397 1.499 1.218 1.072 1.945 2.552 2.049 4.171.105 1.617-.428 3.178-1.499 4.396z"/><path d="m198.758 190.041c-4.222-3.713-9.636-5.561-15.249-5.201-5.612.36-10.747 2.883-14.461 7.105l-3.808 4.329c-13.272-10.828-30.186-17.35-48.611-17.35-42.5 0-77.077 34.576-77.077 77.076s34.576 77.076 77.077 77.076 77.076-34.576 77.076-77.076c0-8.37-1.359-16.425-3.841-23.975l10.797-12.274c3.714-4.222 5.561-9.637 5.202-15.249-.36-5.611-2.883-10.747-7.105-14.461zm-9.346 19.816-31.868 36.228c-2.732 3.105-2.429 7.839.677 10.571 3.106 2.734 7.839 2.43 10.572-.677l9.059-10.298c.567 3.357.872 6.803.872 10.319 0 34.239-27.856 62.095-62.095 62.095s-62.096-27.856-62.096-62.095 27.856-62.095 62.095-62.095c14.638 0 28.095 5.108 38.721 13.613l-31.725 36.067-11.384-13.281c-3.659-4.269-8.762-6.858-14.368-7.29-5.599-.44-11.045 1.345-15.315 5.005-8.813 7.555-9.837 20.87-2.283 29.683l27.161 31.687c3.968 4.631 9.74 7.31 15.838 7.352.056.001.11.001.146.001 6.05 0 11.81-2.605 15.806-7.147l6.956-7.907c2.732-3.106 2.43-7.84-.677-10.572-3.106-2.735-7.84-2.429-10.572.676l-6.956 7.908c-1.145 1.301-2.791 2.051-4.53 2.061-.022 0-.045-.001-.068-.001-1.758-.011-3.423-.783-4.568-2.12l-27.162-31.688c-2.178-2.541-1.882-6.381.659-8.56 1.232-1.055 2.804-1.572 4.415-1.442 1.617.124 3.088.871 4.144 2.102l16.998 19.831c1.412 1.647 3.469 2.602 5.639 2.616h.048c2.153 0 4.202-.926 5.624-2.543l51.121-58.118c1.071-1.217 2.552-1.945 4.17-2.048 1.615-.106 3.18.429 4.397 1.499 1.218 1.072 1.945 2.552 2.049 4.171.104 1.618-.429 3.179-1.5 4.397z"/></g></g></svg>