<svg height="512" viewBox="0 0 512 512" width="512" xmlns="http://www.w3.org/2000/svg"><g><path d="m476 56h-440a28.031 28.031 0 0 0 -28 28v280a28.031 28.031 0 0 0 28 28h160.18l-9.6 24h-42.58a8 8 0 0 0 -8 8v16h-48a8 8 0 0 0 0 16h336a8 8 0 0 0 0-16h-48v-16a8 8 0 0 0 -8-8h-42.58l-9.6-24h160.18a28.031 28.031 0 0 0 28-28v-280a28.031 28.031 0 0 0 -28-28zm-116 376v8h-208v-8zm-156.18-16 9.6-24h85.16l9.6 24zm284.18-52a12.01 12.01 0 0 1 -12 12h-440a12.01 12.01 0 0 1 -12-12v-20h464zm0-36h-464v-244a12.01 12.01 0 0 1 12-12h440a12.01 12.01 0 0 1 12 12z"/><path d="m219.61 262.688a8 8 0 0 0 11.078-2.3l63-96a8 8 0 1 0 -13.376-8.78l-63 96a8 8 0 0 0 2.298 11.08z"/><path d="m306.879 262.146a8 8 0 0 0 11.267-1.025l40-48a8 8 0 0 0 0-10.242l-40-48a8 8 0 1 0 -12.292 10.242l35.732 42.879-35.732 42.879a8 8 0 0 0 1.025 11.267z"/><path d="m193.854 261.121a8 8 0 1 0 12.292-10.242l-35.732-42.879 35.732-42.879a8 8 0 1 0 -12.292-10.242l-40 48a8 8 0 0 0 0 10.242z"/></g></svg>