<svg height="480pt" viewBox="0 0 480 480.10527" width="480pt" xmlns="http://www.w3.org/2000/svg"><path d="m32.050781 32h16v16h-16zm0 0"/><path d="m352.050781 32h16v16h-16zm0 0"/><path d="m320.050781 32h16v16h-16zm0 0"/><path d="m288.050781 32h16v16h-16zm0 0"/><path d="m156.636719 249.449219-70.632813-49.449219 70.632813-49.449219-9.167969-13.101562-80 56c-2.136719 1.496093-3.410156 3.941406-3.410156 6.550781s1.273437 5.054688 3.410156 6.550781l80 56zm0 0"/><path d="m252.636719 262.550781 80-56c2.136719-1.496093 3.410156-3.941406 3.410156-6.550781s-1.273437-5.054688-3.410156-6.550781l-80-56-9.167969 13.101562 70.632812 49.449219-70.632812 49.449219zm0 0"/><path d="m168.648438 261.046875 47.953124-120.011719 14.859376 5.9375-47.957032 120.011719zm0 0"/><path d="m72.050781 304h224v16h-224zm0 0"/><path d="m72.050781 336h208v16h-208zm0 0"/><path d="m400.050781 289.449219v-281.449219c0-4.417969-3.578125-8-8-8h-384c-4.417969 0-7.9999998 3.582031-7.9999998 8v368c0 4.417969 3.5820308 8 7.9999998 8h280c-.054687 50.953125 39.707031 93.070312 90.574219 95.953125 50.871094 2.878906 95.132812-34.484375 100.824219-85.117187 5.695312-50.632813-29.15625-96.894532-79.398438-105.386719zm-384-273.449219h368v48h-368zm0 352v-288h368v208c-46.792969.082031-86.722656 33.863281-94.550781 80zm368 96c-44.179687 0-80-35.816406-80-80s35.820313-80 80-80c44.183594 0 80 35.816406 80 80-.046875 44.164062-35.835937 79.953125-80 80zm0 0"/><path d="m432.09375 345.160156-13.890625 4.511719c-2.449219-2.195313-5.113281-4.144531-7.949219-5.816406v-14.566407c0-4.417968-3.582031-8-8-8h-32c-4.417968 0-8 3.582032-8 8v14.480469c-2.882812 1.675781-5.582031 3.640625-8.066406 5.863281l-13.765625-4.472656c-2.023437-.648437-4.21875-.476562-6.113281.480469-1.898438.957031-3.339844 2.632813-4 4.65625l-9.886719 30.4375c-1.367187 4.199219.929687 8.710937 5.125 10.082031l13.96875 4.535156c.703125 3.164063 1.726563 6.246094 3.058594 9.199219l-8.671875 11.9375c-1.257813 1.71875-1.777344 3.863281-1.445313 5.96875.332031 2.101563 1.488281 3.984375 3.210938 5.230469l25.886719 18.816406c1.71875 1.253906 3.867187 1.773438 5.96875 1.441406 2.101562-.332031 3.984374-1.484374 5.234374-3.210937l8.496094-11.710937c3.316406.390624 6.667969.390624 9.984375 0l8.503907 11.710937c1.246093 1.71875 3.125 2.871094 5.222656 3.203125.410156.070312.828125.101562 1.246094.101562 1.691406 0 3.339843-.535156 4.707031-1.527343l25.933593-18.855469c1.722657-1.25 2.878907-3.132812 3.207032-5.234375.332031-2.101563-.191406-4.25-1.445313-5.964844l-8.671875-11.9375c1.328125-2.953125 2.355469-6.035156 3.0625-9.199219l13.960938-4.535156c4.203125-1.367187 6.5-5.878906 5.136718-10.082031l-9.890624-30.398437c-.660157-2.023438-2.097657-3.699219-4-4.65625-1.894532-.960938-4.09375-1.136719-6.117188-.488282zm-8.714844 36.480469c-3.019531.980469-5.175781 3.660156-5.484375 6.824219-.488281 4.523437-1.941406 8.886718-4.265625 12.800781-1.578125 2.738281-1.398437 6.148437.464844 8.703125l6.847656 9.429688-12.945312 9.402343-6.710938-9.25c-1.507812-2.070312-3.910156-3.296875-6.472656-3.292969-.578125 0-1.15625.0625-1.71875.191407-4.492188 1.101562-9.183594 1.101562-13.671875 0-3.109375-.691407-6.328125.527343-8.203125 3.101562l-6.703125 9.25-12.949219-9.402343 6.855469-9.429688c1.859375-2.554688 2.039063-5.964844.460937-8.703125-2.320312-3.914063-3.777343-8.277344-4.269531-12.800781-.3125-3.160156-2.460937-5.839844-5.480469-6.824219l-11-3.570313 4.945313-15.199218 10.816406 3.527344c3.019531.988281 6.339844.089843 8.453125-2.285157 3.082032-3.464843 6.875-6.222656 11.121094-8.089843 2.914062-1.269532 4.796875-4.148438 4.800781-7.328126v-11.40625h16v11.429688c0 3.15625 1.855469 6.019531 4.734375 7.304688 4.21875 1.890624 7.988282 4.652343 11.066406 8.105468 2.113282 2.367188 5.425782 3.261719 8.445313 2.277344l10.9375-3.558594 4.945313 15.199219zm0 0"/><path d="m402.253906 385.289062c0 8.835938-7.164062 16-16 16-8.835937 0-16-7.164062-16-16 0-8.835937 7.164063-16 16-16 8.835938 0 16 7.164063 16 16zm0 0"/></svg>