<?xml version="1.0" encoding="iso-8859-1"?>
<!-- Generator: Adobe Illustrator 19.0.0, SVG Export Plug-In . SVG Version: 6.00 Build 0)  -->
<svg version="1.1" id="Layer_1" xmlns="http://www.w3.org/2000/svg" xmlns:xlink="http://www.w3.org/1999/xlink" x="0px" y="0px"
	 viewBox="0 0 469.333 469.333" style="enable-background:new 0 0 469.333 469.333;" xml:space="preserve">
<g>
	<g>
		<path d="M416,320c-13.371,0-25.461,5.117-34.832,13.277l-73.073-55.88c7.372-12.616,11.905-27.094,11.905-42.73
			c0-15.022-4.238-28.941-11.082-41.215l50.094-36.742c9.469,8.581,21.901,13.957,35.655,13.957
			c29.406,0,53.333-23.927,53.333-53.333S424.073,64,394.667,64s-53.333,23.927-53.333,53.333c0,7.948,1.866,15.427,4.997,22.21
			l-49.885,36.59c-15.563-16.418-37.426-26.799-61.779-26.799c-6.798,0-13.327,1.004-19.669,2.513l-12.285-32.772
			c19.012-11.108,31.954-31.51,31.954-55.074c0-35.292-28.708-64-64-64s-64,28.708-64,64c0,35.292,28.708,64,64,64
			c4.16,0,8.207-0.466,12.148-1.228l12.277,32.751c-22.641,11.982-39.344,33.563-44.18,59.531l-45.014-2.642
			c-3.724-25.794-25.756-45.746-52.565-45.746C23.927,170.667,0,194.594,0,224s23.927,53.333,53.333,53.333
			c24.639,0,45.229-16.884,51.323-39.629l45.253,2.656c1.466,21.715,10.79,41.245,25.529,55.51l-39.612,52.819
			c-8.785-4.544-18.603-7.357-29.159-7.357c-35.292,0-64,28.708-64,64s28.708,64,64,64s64-28.708,64-64
			c0-17.048-6.801-32.467-17.704-43.949l39.677-52.906c12.46,7.125,26.676,11.522,42.027,11.522
			c23.745,0,45.214-9.786,60.698-25.491l72.809,55.677c-3.419,7.03-5.507,14.819-5.507,23.147c0,29.406,23.927,53.333,53.333,53.333
			s53.333-23.927,53.333-53.333S445.406,320,416,320z M394.667,85.333c17.646,0,32,14.354,32,32c0,17.646-14.354,32-32,32
			c-17.646,0-32-14.354-32-32C362.667,99.687,377.021,85.333,394.667,85.333z M53.333,256c-17.646,0-32-14.354-32-32
			c0-17.646,14.354-32,32-32c17.646,0,32,14.354,32,32C85.333,241.646,70.979,256,53.333,256z M106.667,448
			C83.135,448,64,428.865,64,405.333s19.135-42.667,42.667-42.667s42.667,19.135,42.667,42.667S130.198,448,106.667,448z
			 M170.667,106.667C147.135,106.667,128,87.531,128,64s19.135-42.667,42.667-42.667S213.333,40.469,213.333,64
			S194.198,106.667,170.667,106.667z M234.667,298.667c-35.292,0-64-28.708-64-64s28.708-64,64-64s64,28.708,64,64
			S269.958,298.667,234.667,298.667z M416,405.333c-17.646,0-32-14.354-32-32s14.354-32,32-32c17.646,0,32,14.354,32,32
			S433.646,405.333,416,405.333z"/>
	</g>
</g>
<g>
</g>
<g>
</g>
<g>
</g>
<g>
</g>
<g>
</g>
<g>
</g>
<g>
</g>
<g>
</g>
<g>
</g>
<g>
</g>
<g>
</g>
<g>
</g>
<g>
</g>
<g>
</g>
<g>
</g>
</svg>
