<svg id="Icons" height="512" viewBox="0 0 74 74" width="512" xmlns="http://www.w3.org/2000/svg"><path d="m67 56h-60a5.006 5.006 0 0 1 -5-5v-44a5.006 5.006 0 0 1 5-5h60a5.006 5.006 0 0 1 5 5v44a5.006 5.006 0 0 1 -5 5zm-60-52a3 3 0 0 0 -3 3v44a3 3 0 0 0 3 3h60a3 3 0 0 0 3-3v-44a3 3 0 0 0 -3-3z"/><path d="m48.688 64.139h-23.376a1 1 0 0 1 -1-1v-8.139a1 1 0 0 1 1-1h23.376a1 1 0 0 1 1 1v8.143a1 1 0 0 1 -1 .996zm-22.376-2h21.376v-6.139h-21.376z"/><path d="m54.143 72h-34.286a1 1 0 0 1 -1-1v-3.937a4.93 4.93 0 0 1 4.924-4.924h26.438a4.93 4.93 0 0 1 4.924 4.924v3.937a1 1 0 0 1 -1 1zm-33.286-2h32.286v-2.937a2.928 2.928 0 0 0 -2.924-2.924h-26.438a2.928 2.928 0 0 0 -2.924 2.924z"/><path d="m45.44 42.49h-2.97a1 1 0 0 1 0-2h2.97a1 1 0 0 1 0 2z"/><path d="m25.56 42.49h-22.56a1 1 0 0 1 0-2h22.56a1 1 0 0 1 0 2z"/><path d="m35.47 42.49h-2.91a1 1 0 0 1 0-2h2.91a1 1 0 0 1 0 2z"/><path d="m71 42.49h-18.56a1 1 0 0 1 0-2h18.56a1 1 0 0 1 0 2z"/><path d="m16 49.25h-3.667a1 1 0 1 1 0-2h3.667a1 1 0 0 1 0 2z"/><path d="m37 34.246a12 12 0 1 1 12-12 12.013 12.013 0 0 1 -12 12zm0-22a10 10 0 1 0 10 10 10.011 10.011 0 0 0 -10-10z"/><path d="m35.56 28.207a2.364 2.364 0 0 1 -2.361-2.36v-7.2a2.358 2.358 0 0 1 3.785-1.878l4.738 3.6a2.36 2.36 0 0 1 0 3.756l-4.739 3.6a2.351 2.351 0 0 1 -1.423.482zm0-9.922a.372.372 0 0 0 -.164.04.344.344 0 0 0 -.2.321v7.2a.357.357 0 0 0 .574.284l4.74-3.6a.36.36 0 0 0 0-.571l-4.739-3.6a.34.34 0 0 0 -.209-.074z"/></svg>